<?xml version="1.0" encoding="utf-8"?>
<!-- Generator: Adobe Illustrator 21.1.0, SVG Export Plug-In . SVG Version: 6.00 Build 0)  -->
<svg version="1.1" id="Layer_1" xmlns="http://www.w3.org/2000/svg" xmlns:xlink="http://www.w3.org/1999/xlink" x="0px" y="0px"
	 viewBox="0 0 174.8 166.1" style="enable-background:new 0 0 174.8 166.1;" xml:space="preserve">
<style type="text/css">
	.st0{fill:#F99C08;}
	.st1{fill:#5B5B5B;}
	.st2{fill:#FFA035;}
	.st3{fill:#E5E5E5;}
	.st4{fill:#FFFFFF;}
	.st5{fill:#5B5B5B;stroke:#000000;stroke-miterlimit:10;}
	.st6{fill:#775003;stroke:#000000;stroke-miterlimit:10;}
	.st7{fill:#8C5C06;stroke:#000000;stroke-miterlimit:10;}
	.st8{fill:#9B6404;stroke:#000000;stroke-miterlimit:10;}
	.st9{fill:#DEE242;stroke:#000000;stroke-miterlimit:10;}
	.st10{fill:none;stroke:#56A4DB;stroke-width:2;stroke-miterlimit:10;}
	.st11{fill:none;stroke:#8AD0F3;stroke-width:2;stroke-miterlimit:10;}
	.st12{fill:none;stroke:#FFA035;stroke-width:2;stroke-miterlimit:10;}
</style>
<g id="Camera">
	<g>
		
			<rect x="30.9" y="28.8" transform="matrix(0.3171 -0.9484 0.9484 0.3171 -8.3422 51.5765)" class="st0" width="1.5" height="5.5"/>
		<g>
			<path d="M29.4,30.3l4.7,1.6l-0.3,0.9l-4.7-1.6L29.4,30.3 M29.1,29.7l-0.6,1.9l5.7,1.9l0.6-1.9L29.1,29.7L29.1,29.7z"/>
		</g>
	</g>
	<g>
		<rect x="30.2" y="27.2" transform="matrix(0.3172 -0.9484 0.9484 0.3172 -18.6315 75.5717)" class="st1" width="26" height="47"/>
		<path d="M25.3,31.6l43.6,14.6L61,69.9L17.4,55.3L25.3,31.6 M24.7,30.3l-8.6,25.6l45.5,15.2l8.6-25.6L24.7,30.3L24.7,30.3z"/>
	</g>
	<g>
		<path class="st2" d="M45.2,61.5c-1,0-1.9-0.2-2.9-0.5c-4.7-1.6-7.3-6.7-5.7-11.4c1.2-3.7,4.7-6.1,8.5-6.1c1,0,1.9,0.2,2.9,0.5
			c4.7,1.6,7.3,6.7,5.7,11.4C52.5,59,49.1,61.5,45.2,61.5C45.2,61.5,45.2,61.5,45.2,61.5z"/>
		<path d="M45.2,44c0.9,0,1.8,0.1,2.7,0.4c2.2,0.7,3.9,2.2,4.9,4.3c1,2,1.2,4.3,0.5,6.5c-1.2,3.5-4.4,5.8-8.1,5.8
			c-0.9,0-1.8-0.1-2.7-0.4c-2.2-0.7-3.9-2.2-4.9-4.3c-1-2-1.2-4.3-0.5-6.5C38.3,46.3,41.6,44,45.2,44 M45.2,43c-4,0-7.7,2.5-9,6.5
			c-1.7,5,1,10.4,6,12c1,0.3,2,0.5,3,0.5c4,0,7.7-2.5,9-6.5c1.7-5-1-10.4-6-12C47.2,43.1,46.2,43,45.2,43L45.2,43z"/>
	</g>
	<g>
		<path class="st3" d="M45.2,58.5c-0.6,0-1.3-0.1-1.9-0.3c-1.5-0.5-2.8-1.6-3.5-3c-0.7-1.4-0.8-3.1-0.3-4.6c0.8-2.5,3.1-4.1,5.7-4.1
			c0.6,0,1.3,0.1,1.9,0.3c1.5,0.5,2.8,1.6,3.5,3c0.7,1.4,0.8,3.1,0.3,4.6C50.1,56.8,47.8,58.5,45.2,58.5L45.2,58.5z"/>
		<path d="M45.2,47c0.6,0,1.2,0.1,1.7,0.3c2.9,1,4.4,4.1,3.5,7c-0.8,2.2-2.8,3.8-5.2,3.8c-0.6,0-1.2-0.1-1.7-0.3
			c-2.9-1-4.4-4.1-3.5-7C40.8,48.5,42.9,47,45.2,47 M45.2,46c-2.7,0-5.3,1.7-6.2,4.4c-1.1,3.4,0.7,7.1,4.1,8.2
			c0.7,0.2,1.4,0.3,2.1,0.3c2.7,0,5.3-1.7,6.2-4.4c1.1-3.4-0.7-7.1-4.1-8.2C46.6,46.1,45.9,46,45.2,46L45.2,46z"/>
	</g>
	<g>
		<rect x="35.2" y="35.2" transform="matrix(0.3172 -0.9484 0.9484 0.3172 -11.3239 61.6755)" class="st4" width="4" height="7"/>
	</g>
	<g>
		<rect x="59.2" y="42.9" transform="matrix(0.3172 -0.9484 0.9484 0.3172 -2.8675 90.864)" class="st4" width="5" height="9"/>
	</g>
</g>
<path id="Tripod" class="st5" d="M158.9,76.3l-7.4-25.8l1.9-2.8c0.2-0.3,0.1-0.7-0.2-0.9l-1.1-0.7c-0.3-0.2-0.7-0.1-0.9,0.2
	l-1.9,2.8l-26.7,2.8c-0.4,0-0.6,0.4-0.6,0.7l0.1,1.3c0,0.4,0.4,0.6,0.7,0.6l24.5-2.6l-15.6,23.2c-0.2,0.3-0.1,0.7,0.2,0.9l1.1,0.7
	c0.3,0.2,0.7,0.1,0.9-0.2l15.6-23.2l6.8,23.7c0.1,0.3,0.5,0.5,0.8,0.4l1.3-0.4C158.8,77.1,159,76.7,158.9,76.3z"/>
<g id="Bag">
	<path class="st6" d="M112.8,105.7l-33.4,25.5c-1.3,1-3.2,0.8-4.2-0.6l-13.9-18.3c-1-1.3-0.8-3.2,0.6-4.2l33.4-25.5
		c1.3-1,3.2-0.8,4.2,0.6l13.9,18.3C114.4,102.8,114.1,104.7,112.8,105.7z"/>
	<path class="st7" d="M104.3,94.6L70.9,120c-1.3,1-3.2,0.8-4.2-0.6l-5.5-7.2c-1-1.3-0.8-3.2,0.6-4.2l33.4-25.5
		c1.3-1,3.2-0.8,4.2,0.6l5.5,7.2C105.9,91.7,105.6,93.6,104.3,94.6z"/>
	<g>
		<path class="st8" d="M81.7,119.3l-0.8,0.6c-0.4,0.3-1.1,0.3-1.4-0.2l-4.8-6.4c-0.3-0.4-0.3-1.1,0.2-1.4l0.8-0.6
			c0.4-0.3,1.1-0.3,1.4,0.2l4.8,6.4C82.2,118.4,82.2,119,81.7,119.3z"/>
		<path class="st8" d="M101.6,104.2l-0.8,0.6c-0.4,0.3-1.1,0.3-1.4-0.2l-4.8-6.4c-0.3-0.4-0.3-1.1,0.2-1.4l0.8-0.6
			c0.4-0.3,1.1-0.3,1.4,0.2l4.8,6.4C102.1,103.2,102,103.8,101.6,104.2z"/>
		<rect x="96.1" y="98.7" transform="matrix(0.7953 -0.6062 0.6062 0.7953 -40.4783 79.553)" class="st9" width="3" height="2"/>
		<rect x="76.2" y="113.9" transform="matrix(0.7953 -0.6062 0.6062 0.7953 -53.7354 70.6022)" class="st9" width="3" height="2"/>
	</g>
	<path class="st8" d="M66.9,104.3c-2.1-4.9,0.1-11.6,5.6-15.7s12.5-4.6,16.7-1.2l1.4-1.1c-4.1-4.1-12.1-3.6-18.6,1.3
		c-6.5,4.9-9,12.6-6.2,17.6L66.9,104.3z"/>
</g>
<g id="Shapes">
	<path class="st10" d="M66.7,23.4c4.5-8.2,18-9.5,30.1-2.9"/>
	<path class="st11" d="M39.4,94.6c0-7.1-5.7-12.8-12.8-12.8c-5.7,0-10.2,4.6-10.2,10.2c0,4.5,3.7,8.2,8.2,8.2c3.6,0,3.6-4.9,3.6-8.6
		"/>
	<polyline class="st12" points="83.7,48.9 104.7,48.9 104.7,66.7 95.7,57.9 85.9,63.7 	"/>
	<polygon class="st10" points="147.7,98.9 125.7,91.9 140.1,109.4 	"/>
	<polygon class="st12" points="7.2,6.4 1.2,20.4 9.2,27.4 16.2,2.4 	"/>
	<path class="st11" d="M73.9,162.8c0,0,14.5,7.4,20.1-4.5c5.6-11.9,14.3,1.1,14.3,1.1s-3.4-31.2-11.1-18.9S77.7,158.9,73.9,162.8z"
		/>
	<path class="st12" d="M145.7,16.3c0,0-5.6-24.4-10.8-11.6C129.8,17.6,121.2,28,121.2,28l21.6,2.9c0,0-10.6-10.6-4.7-11.4
		C144,18.6,145.7,16.3,145.7,16.3z"/>
	<polyline class="st12" points="136.8,138.6 152.1,131.6 159.8,148.5 173.5,142.2 165,123.7 158.5,126.7 162.6,135.5 	"/>
	<path class="st12" d="M16.7,155.9v-12c0,0-12-4-11-14s26-8,26,0s-8,10-8,10l4,13"/>
</g>
</svg>
